<?xml version="1.0" encoding="utf-8"?>
<!-- Generator: Adobe Illustrator 21.0.0, SVG Export Plug-In . SVG Version: 6.00 Build 0)  -->
<svg version="1.1" id="Capa_1" xmlns="http://www.w3.org/2000/svg" xmlns:xlink="http://www.w3.org/1999/xlink" x="0px" y="0px"
	 viewBox="0 0 238.3 317.9" style="enable-background:new 0 0 238.3 317.9;" xml:space="preserve">
<style type="text/css">
	.st0{fill:#0584B2;}
	.st1{fill:#1894B6;}
	.st2{fill:#2CBBDD;}
	.st3{fill:#54C0D7;}
</style>
<circle class="st0" cx="4" cy="119.1" r="4"/>
<path class="st0" d="M17.4,65.1c1.9,1.1,4.4,0.5,5.5-1.5c1.1-1.9,0.5-4.4-1.5-5.5c-1.9-1.1-4.4-0.5-5.5,1.5c0,0,0,0,0,0
	C14.9,61.5,15.5,64,17.4,65.1z"/>
<path class="st0" d="M123.2,234.3c0-2.2-1.8-4-4-4s-4,1.8-4,4c0,2.2,1.8,4,4,4C121.4,238.3,123.2,236.5,123.2,234.3
	C123.2,234.3,123.2,234.3,123.2,234.3L123.2,234.3z"/>
<path class="st0" d="M17.5,173.2c-1.9,1.1-2.6,3.6-1.5,5.5c0,0,0,0,0,0c1.1,1.9,3.6,2.6,5.5,1.5h0c1.9-1.1,2.6-3.6,1.5-5.5
	C21.9,172.7,19.4,172.1,17.5,173.2z"/>
<path class="st0" d="M63.6,215.3c-1.9-1.1-4.4-0.5-5.5,1.5c-1.1,1.9-0.5,4.4,1.5,5.5c0,0,0,0,0,0c1.9,1.1,4.4,0.4,5.5-1.5
	C66.2,218.9,65.5,216.5,63.6,215.3z"/>
<path class="st0" d="M174.7,23c1.9,1.1,4.4,0.4,5.5-1.5c1.1-1.9,0.4-4.4-1.5-5.5c-1.9-1.1-4.4-0.4-5.5,1.5c0,0,0,0,0,0
	C172.1,19.4,172.8,21.9,174.7,23z"/>
<path class="st0" d="M63.6,23c1.9-1.1,2.6-3.6,1.5-5.5c-1.1-1.9-3.6-2.6-5.5-1.5c0,0,0,0,0,0c-1.9,1.1-2.6,3.6-1.5,5.5
	C59.2,23.4,61.7,24.1,63.6,23z"/>
<path class="st0" d="M119.1,8.1c2.2,0,4-1.8,4-4s-1.8-4-4-4c-2.2,0-4,1.8-4,4h0C115.1,6.3,116.9,8.1,119.1,8.1z"/>
<path class="st0" d="M220.8,173.2c-1.9-1.1-4.4-0.4-5.5,1.5c-1.1,1.9-0.4,4.4,1.5,5.5c1.9,1.1,4.4,0.4,5.5-1.5c0,0,0,0,0,0
	C223.4,176.8,222.8,174.3,220.8,173.2z"/>
<path class="st0" d="M222.3,59.6c-1.1-1.9-3.6-2.6-5.5-1.5c0,0,0,0,0,0v0c-1.9,1.1-2.6,3.6-1.5,5.5c1.1,1.9,3.6,2.6,5.5,1.5
	C222.8,64,223.5,61.5,222.3,59.6C222.3,59.6,222.3,59.6,222.3,59.6z"/>
<circle class="st0" cx="234.3" cy="119.2" r="4"/>
<path class="st0" d="M174.7,215.3c-1.9,1.1-2.6,3.6-1.5,5.5c1.1,1.9,3.6,2.6,5.5,1.5c0,0,0,0,0,0c1.9-1.1,2.6-3.6,1.5-5.5
	C179.1,214.9,176.6,214.2,174.7,215.3z"/>
<path class="st1" d="M221.1,101.2C221.1,101.2,221.1,101.2,221.1,101.2c-0.8-4.2-4.8-7-9-6.3v0c-4.2,0.7-7,4.8-6.3,9
	c0.7,4.2,4.8,7,9,6.3C219,109.4,221.8,105.4,221.1,101.2z"/>
<path class="st1" d="M62.6,51.8c3.3-2.8,3.7-7.7,1-10.9c-2.8-3.3-7.7-3.7-10.9-1c0,0,0,0,0,0c-3.3,2.8-3.7,7.7-1,10.9
	C54.4,54.1,59.3,54.5,62.6,51.8z"/>
<path class="st1" d="M174.7,40.8L174.7,40.8c-2.8,3.3-2.3,8.2,1,10.9c3.3,2.8,8.2,2.3,10.9-1c2.8-3.3,2.3-8.2-1-10.9c0,0,0,0,0,0
	C182.4,37.1,177.5,37.5,174.7,40.8z"/>
<path class="st1" d="M119.1,31.2c4.3,0,7.8-3.5,7.8-7.8c0-4.3-3.5-7.8-7.8-7.8h0c-4.3,0-7.8,3.5-7.8,7.8
	C111.4,27.7,114.9,31.2,119.1,31.2z"/>
<path class="st1" d="M32.5,103.9c0.7-4.2-2.1-8.3-6.3-9c-4.2-0.7-8.3,2.1-9,6.3l0,0c-0.7,4.2,2.1,8.3,6.3,9
	C27.8,110.9,31.8,108.1,32.5,103.9z"/>
<path class="st1" d="M205.9,160.3c-3.7-2.1-8.5-0.9-10.6,2.8c-2.1,3.7-0.9,8.5,2.8,10.6c3.7,2.1,8.5,0.9,10.6-2.8c0,0,0,0,0,0
	C210.9,167.2,209.6,162.4,205.9,160.3z"/>
<path class="st1" d="M89.1,201.8c-4-1.5-8.5,0.6-10,4.6c-1.5,4,0.6,8.5,4.6,10c4,1.5,8.5-0.6,10-4.6h0
	C95.2,207.7,93.1,203.3,89.1,201.8z"/>
<path class="st1" d="M32.4,160.3c-3.7,2.1-5,6.9-2.9,10.6c0,0,0,0,0,0c2.1,3.7,6.9,5,10.6,2.8c3.7-2.1,5-6.9,2.9-10.6
	C40.9,159.4,36.1,158.1,32.4,160.3z"/>
<path class="st1" d="M159.2,206.4c-1.5-4-5.9-6.1-10-4.6c-4,1.5-6.1,5.9-4.6,10c1.5,4,5.9,6.1,10,4.6
	C158.6,214.9,160.7,210.5,159.2,206.4C159.2,206.4,159.2,206.4,159.2,206.4z"/>
<path class="st2" d="M184.1,131c-5.7-2.1-12,0.9-14.1,6.6c-2.1,5.7,0.8,12.1,6.6,14.2c5.7,2.1,12.1-0.8,14.2-6.6c0,0,0,0,0,0
	C192.8,139.4,189.9,133.1,184.1,131z"/>
<path class="st2" d="M97,56.9L97,56.9c1.1,6,6.8,10,12.8,9c6-1.1,10-6.8,9-12.8c-1.1-6-6.8-10-12.8-9C99.9,45.2,95.9,50.9,97,56.9
	C97,56.9,97,56.9,97,56.9z"/>
<path class="st2" d="M68.3,100.7c2.1-5.7-0.9-12.1-6.6-14.2c-5.7-2.1-12.1,0.9-14.2,6.6c-2.1,5.7,0.8,12.1,6.6,14.2c0,0,0,0,0,0
	C59.9,109.4,66.3,106.4,68.3,100.7z"/>
<path class="st2" d="M77.8,153.9c-3.9-4.7-10.9-5.3-15.6-1.4c-4.7,3.9-5.3,10.9-1.4,15.6c3.9,4.7,10.9,5.3,15.5,1.3l0,0
	C81.1,165.6,81.7,158.6,77.8,153.9z"/>
<path class="st2" d="M141.3,181.4L141.3,181.4c-1-6-6.8-10-12.8-8.9c-6,1.1-10,6.8-9,12.8c1.1,6,6.8,10,12.8,9
	C138.4,193.1,142.4,187.4,141.3,181.4C141.3,181.4,141.3,181.4,141.3,181.4z"/>
<path class="st2" d="M177.5,70.2c-3.9-4.7-10.9-5.3-15.6-1.4c0,0,0,0,0,0l0,0c-4.7,3.9-5.3,10.9-1.4,15.6c3.9,4.7,10.9,5.3,15.6,1.4
	C180.8,81.8,181.4,74.9,177.5,70.2z"/>
<path class="st3" d="M99.3,91.9c-6.5-3.8-14.9-1.5-18.7,5c-3.8,6.5-1.5,14.9,5,18.7c0,0,0,0,0,0v0c6.6,3.8,14.9,1.5,18.7-5
	C108.1,104,105.8,95.7,99.3,91.9z"/>
<circle class="st3" cx="119.1" cy="150" r="13.7"/>
<path class="st3" d="M152.7,115.6c6.5-3.8,8.8-12.2,5-18.7c-3.8-6.6-12.2-8.8-18.7-5c0,0,0,0,0,0l0,0c-6.5,3.8-8.8,12.2-5,18.7
	C137.8,117.1,146.2,119.4,152.7,115.6z"/>
<path id="g" class="st2" d="M59.5,302.4c0-0.5-0.4-0.8-0.8-0.8c-0.1,0-0.3,0-0.4,0.1l0,0c-0.7,0.3-1.3,0.7-2,0.9
	c-0.9,0.3-1.8,0.6-2.7,0.8c-1.1,0.2-2.3,0.3-3.5,0.3c-2,0-4-0.3-5.9-1c-1.9-0.6-3.6-1.7-5-3c-1.5-1.5-2.7-3.3-3.5-5.3
	c-0.9-2.5-1.4-5.2-1.3-7.9c0-2.4,0.4-4.7,1.2-7c0.7-2.1,1.9-3.9,3.3-5.6c1.5-1.6,3.3-2.8,5.3-3.7c2.2-0.9,4.6-1.4,7-1.3
	c2.6-0.1,5.3,0.2,7.9,0.7h0c2.8,0.6,4.9,3.1,4.9,6.1v27.4c0,5.3-1.4,9.1-4.1,11.3c-2.7,2.3-6.9,3.4-12.4,3.4c-2.1,0-4.1-0.1-6.2-0.5
	c-1.6-0.3-3.2-0.7-4.8-1.2l0,0c0.5-2.1,2.5-3.3,4.5-2.9l0.8,0.2c1.9,0.4,3.8,0.5,5.7,0.5c4.2,0,7.2-0.8,9.1-2.4
	c1.9-1.6,2.8-4.4,2.8-8.3L59.5,302.4z M59.5,276.9c0-1.8-1.2-3.3-3-3.5h0c-1.7-0.2-3.5-0.3-5.3-0.3c-1.8,0-3.5,0.3-5.1,1
	c-1.5,0.6-2.7,1.6-3.8,2.8c-1.1,1.3-1.9,2.7-2.4,4.3c-0.6,1.8-0.8,3.6-0.8,5.5c0,2,0.3,4.1,1,6c0.5,1.5,1.4,2.9,2.5,4.1
	c1,1,2.2,1.8,3.5,2.3c1.3,0.5,2.7,0.7,4,0.7c1.9,0,3.7-0.3,5.5-0.9h0.1c2.3-0.8,3.8-3,3.8-5.5L59.5,276.9z"/>
<path id="coop" class="st0" d="M87.4,305.8c-2.5,0-4.9-0.4-7.2-1.3c-2-0.8-3.8-2.1-5.2-3.7c-1.4-1.7-2.5-3.7-3.2-5.8
	c-1.5-4.9-1.5-10.2,0-15.1c0.7-2.2,1.8-4.2,3.2-5.9c1.4-1.6,3.2-2.9,5.1-3.8c2.1-0.9,4.4-1.4,6.8-1.3c1.8,0,3.6,0.2,5.4,0.5
	c1.3,0.2,2.6,0.6,3.9,1.2l-0.1,0.5c-0.5,1.7-2.3,2.7-4,2.3h0c-1.5-0.3-3-0.4-4.6-0.4c-3.9,0-6.9,1.3-8.9,3.8c-2,2.5-3,6.1-3,10.8
	c0,1.9,0.2,3.9,0.7,5.8c0.4,1.6,1.2,3.2,2.2,4.5c1.1,1.3,2.4,2.3,4,2.9c1.9,0.8,3.9,1.1,5.9,1.1c1.6,0,3.3-0.2,4.8-0.7h0
	c1.5-0.5,3,0.3,3.5,1.8c0,0.1,0,0.1,0.1,0.2l0.2,0.8c-1.2,0.6-2.5,1-3.9,1.3C91.1,305.6,89.3,305.8,87.4,305.8z M132.6,287.4
	c0,2.6-0.4,5.1-1.2,7.6c-0.7,2.1-1.9,4.1-3.3,5.8c-1.4,1.6-3.2,2.9-5.1,3.7c-4.1,1.8-8.8,1.8-13,0c-1.9-0.9-3.7-2.1-5.1-3.7
	c-1.5-1.7-2.6-3.7-3.3-5.8c-1.6-4.9-1.6-10.2,0-15.2c0.7-2.1,1.9-4.1,3.3-5.8c1.4-1.6,3.1-2.9,5.1-3.8c4.1-1.8,8.8-1.8,13,0
	c1.9,0.9,3.7,2.2,5.1,3.8c1.5,1.7,2.6,3.7,3.3,5.8C132.3,282.2,132.7,284.8,132.6,287.4z M127.9,287.4c0-4.4-1-7.9-3.1-10.6
	c-2-2.6-4.8-3.9-8.3-3.9c-3.5,0-6.3,1.3-8.3,3.9c-2,2.6-3.1,6.1-3.1,10.6c0,4.4,1,7.9,3.1,10.5c2,2.6,4.8,3.9,8.3,3.9
	c3.5,0,6.3-1.3,8.3-3.9C126.9,295.3,127.9,291.8,127.9,287.4L127.9,287.4z M168.3,287.4c0,2.6-0.4,5.1-1.2,7.6
	c-0.7,2.1-1.9,4.1-3.4,5.8c-1.4,1.6-3.2,2.9-5.1,3.7c-4.1,1.8-8.8,1.8-13,0c-1.9-0.9-3.7-2.1-5.1-3.7c-1.5-1.7-2.6-3.7-3.3-5.8
	c-1.6-4.9-1.6-10.2,0-15.2c0.7-2.1,1.9-4.1,3.3-5.8c1.4-1.6,3.1-2.9,5.1-3.8c4.1-1.8,8.8-1.8,13,0c1.9,0.9,3.7,2.2,5.1,3.8
	c1.5,1.7,2.6,3.7,3.3,5.8C168,282.2,168.4,284.8,168.3,287.4L168.3,287.4z M163.6,287.4c0-4.4-1-7.9-3.1-10.6
	c-2-2.6-4.8-3.9-8.3-3.9c-3.5,0-6.3,1.3-8.3,3.9c-2,2.6-3.1,6.1-3.1,10.6c0,4.4,1,7.9,3.1,10.5c2,2.6,4.8,3.9,8.3,3.9
	c3.5,0,6.3-1.3,8.3-3.9C162.6,295.3,163.6,291.8,163.6,287.4z M173.9,315.9L173.9,315.9v-40.2c0-3,2.1-5.6,5-6.1l0,0
	c2.6-0.5,5.2-0.7,7.8-0.6c2.4,0,4.8,0.4,7.1,1.3c2.1,0.8,3.9,2.1,5.5,3.7c1.6,1.7,2.8,3.7,3.5,5.8c0.9,2.5,1.3,5.1,1.3,7.7
	c0,2.5-0.3,5-1.1,7.4c-0.6,2.1-1.7,4.1-3.1,5.8c-1.4,1.6-3.1,2.9-5,3.8c-2.1,0.9-4.5,1.4-6.8,1.4c-2.1,0-4.1-0.3-6.1-1H182
	c-1.4-0.5-2.9,0.1-3.5,1.5c-0.1,0.3-0.2,0.6-0.2,1v4.2C178.3,313.9,176.4,315.9,173.9,315.9L173.9,315.9z M178.4,297
	c0,1.1,0.6,2.1,1.5,2.7l0,0c0.7,0.4,1.4,0.7,2.2,1c0.9,0.3,1.8,0.6,2.7,0.8c1,0.2,2,0.3,3,0.3c1.9,0.1,3.8-0.3,5.5-1.1
	c1.4-0.7,2.7-1.8,3.6-3.1c0.9-1.4,1.6-2.9,2-4.6c0.4-1.8,0.6-3.7,0.6-5.6c0-4.6-1.2-8.2-3.5-10.7c-2.3-2.5-5.4-3.7-9.2-3.7
	c-1.8,0-3.5,0.1-5.3,0.3h0c-1.7,0.3-3,1.7-3,3.5L178.4,297z"/>
</svg>
