<svg xmlns="http://www.w3.org/2000/svg" xmlns:svg="http://www.w3.org/2000/svg" id="svg2" width="693.092" height="694.315" version="1.1"><metadata id="metadata7"/><g id="layer5" display="none" transform="translate(-21.752323,-176.19238)"><rect id="rect3879" width="692.144" height="693.366" x="22.227" y="176.667" fill="#ff9800" fill-opacity=".985" fill-rule="nonzero" stroke="#ff9800" stroke-dasharray="none" stroke-dashoffset="0" stroke-miterlimit="4" stroke-opacity="1" stroke-width=".949"/></g><g id="layer1" transform="translate(-21.752323,-176.19238)"><ellipse id="path2991" cx="367.143" cy="583.791" fill="#1f6879" fill-opacity="1" fill-rule="nonzero" stroke="#1f6879" stroke-dasharray="none" stroke-dashoffset="0" stroke-miterlimit="4" stroke-opacity="1" stroke-width="1" rx="301.429" ry="308.571" transform="matrix(1.1367145,0,0,1.1104013,-48.35093,-123.72286)"/></g><g id="layer2" display="inline" transform="translate(-21.752323,-176.19238)"><path id="path3815" fill="#212121" fill-opacity=".416" fill-rule="nonzero" stroke="#1f6879" stroke-dasharray="none" stroke-dashoffset="0" stroke-miterlimit="4" stroke-opacity=".897" stroke-width="2.02" d="m 154.19394,749.89755 c -1.96561,-2.40912 -6.28467,-15.0163 -9.59789,-28.01597 l -6.02405,-23.63578 11.55492,-7.53129 c 17.11234,-11.15353 21.75836,-17.8389 26.24705,-37.76807 3.04992,-13.54338 3.29782,-18.72355 1.29159,-27.03869 -6.78243,-28.11089 -30.59791,-46.72317 -61.5054,-48.06776 l -8.67718,-0.37751 -5.93612,-25.16307 c -5.50171,-23.32167 -5.66557,-25.61469 -2.23926,-31.33453 2.8862,-4.81821 6.45821,-6.91941 16.2897,-9.58233 15.34774,-4.15706 89.78399,-23.12915 231.31141,-58.95599 l 106.70815,-27.01255 2.15114,7.90062 c 2.56731,9.42918 8.40617,14.08462 14.86764,11.85426 6.7609,-2.33373 9.07063,-8.79229 6.25974,-17.50373 l -2.46159,-7.62899 39.6368,-10.02742 c 51.62528,-13.06031 50.92908,-13.34044 61.01865,24.55289 l 6.2999,23.66043 -9.383,5.29521 c -5.16063,2.91237 -12.97647,9.76254 -17.36851,15.22262 -6.65162,8.26919 -8.52178,12.40102 -11.19602,24.7361 -3.93613,18.15541 -1.83858,30.77169 7.58737,45.63698 10.63496,16.77203 17.29803,21.05234 40.80982,26.21594 l 20.17193,4.43011 5.35637,22.00963 c 5.42851,22.30605 5.67574,24.61738 3.47348,32.47127 -1.85549,6.61721 -8.51805,9.28496 -48.44224,19.39664 l -36.57631,9.26378 -1.10192,-6.35171 c -1.3371,-7.70732 -6.17654,-12.25325 -12.86646,-12.08612 -6.59195,0.16468 -10.31199,7.67496 -8.26065,16.67715 l 1.57603,6.91638 -69.44229,17.61233 c -38.19323,9.68675 -116.56313,29.56674 -174.15531,44.17772 -57.5922,14.61097 -106.75847,26.08531 -109.25838,25.49853 -2.4999,-0.58676 -6.1535,-3.03797 -8.11911,-5.4471 v 0 z M 519.49525,627.36444 c 4.71738,-2.98703 6.02243,-8.37887 3.9458,-16.30224 -2.34904,-8.96273 -5.80578,-12.57687 -11.88392,-12.42501 -8.50186,0.21242 -11.97506,6.68888 -9.26323,17.27309 3.03457,11.84396 9.63967,16.2422 17.20135,11.45416 z m -9.78962,-47.47598 c 3.91776,-3.79763 4.08864,-4.80174 2.32885,-13.68599 -2.2446,-11.33199 -9.10844,-16.39153 -16.53777,-12.19049 -7.40481,4.18716 -7.69912,18.23651 -0.54518,26.02604 3.60852,3.92915 10.61972,3.85808 14.7541,-0.14956 z m -12.5789,-44.8841 c 1.86637,-1.57381 3.75883,-4.35676 4.20551,-6.18432 1.08889,-4.4554 -3.52477,-18.36749 -6.81841,-20.56006 -4.38441,-2.9187 -13.03212,-0.52722 -15.45138,4.27302 -2.29501,4.55377 -0.23064,17.43836 3.39938,21.21667 3.36361,3.50104 11.20538,4.17197 14.6649,1.25469 z m -12.25112,-45.09591 c 4.04464,-2.56106 5.21141,-9.41524 3.14578,-18.48011 -1.71286,-7.51682 -3.63003,-9.18932 -11.72345,-10.22727 -12.75032,-1.63515 -12.62326,26.43058 0.13263,29.29545 3.05158,0.68541 6.85186,0.42072 8.44504,-0.58807 z"/></g><g id="layer3" display="inline" transform="translate(-21.752323,-176.19238)"><path id="path3813" fill="#212121" fill-opacity="1" fill-rule="nonzero" stroke="#212121" stroke-dasharray="none" stroke-dashoffset="0" stroke-miterlimit="4" stroke-opacity="1" stroke-width="2.146" d="m 559.39913,633.75792 -14.25312,-0.42631 -0.10198,-6.58625 c -0.11272,-7.20899 -3.6252,-12.11132 -10.0332,-14.00381 -6.11997,-1.8074 -15.14592,7.27284 -15.02314,15.11423 l 0.0977,6.3247 -182.91206,0.79147 c -100.60142,0.4354 -189.58177,0.62793 -197.73402,0.42785 -8.15208,-0.20008 -17.69248,-0.41532 -21.20115,-0.47829 -3.76474,-0.0675 -8.70352,-2.27649 -12.05124,-5.3898 -5.43208,-5.05193 -5.69011,-6.41635 -6.09394,-32.24503 -0.23222,-14.83365 0.3498,-26.80644 1.29322,-26.60636 3.02401,0.6413 17.41148,-3.01148 23.97495,-6.08664 10.98355,-5.14657 24.22777,-17.47767 30.00341,-27.93532 18.62892,-33.72958 -1.789,-74.0499 -43.05457,-85.02242 L 100.04302,448.37413 99.67147,424.639 c -0.40588,-25.96327 1.21897,-32.63358 8.86311,-36.38053 3.7585,-1.84241 32.81959,-2.69283 113.45904,-3.32021 59.62319,-0.46384 117.6408,-0.6654 128.92729,-0.44806 11.28661,0.21737 53.85239,0.0517 94.59078,-0.36808 l 74.06943,-0.76351 0.18835,8.83064 c 0.21722,10.17113 4.19142,15.35485 11.70192,15.26256 8.11426,-0.0997 12.33605,-5.41047 12.18104,-15.32345 l -0.1382,-8.82358 45.02556,0.42834 c 24.76403,0.2356 47.13937,1.32492 49.72319,2.42091 9.11987,3.86808 10.75377,9.08308 10.83646,34.58613 0.0413,13.33953 -0.44768,25.03243 -1.09104,25.98412 -0.64307,0.95189 -3.52019,1.75938 -6.39316,1.79468 -6.67055,0.082 -25.50608,9.15097 -33.72592,16.2387 -3.48493,3.00477 -9.25676,11.08333 -12.82584,17.95195 -18.06299,34.76024 3.46921,75.25741 45.11605,84.85335 l 10.62197,2.44741 -0.43506,25.07219 c -0.2392,13.78979 -1.49392,26.88544 -2.78785,29.10147 -5.86928,10.05096 -20.2017,11.60713 -88.17941,9.57389 v 0 z m -19.93322,-39.66841 c 4.1428,-2.64812 4.98583,-5.12719 4.84336,-14.2429 -0.15336,-9.81258 -0.80865,-11.28401 -5.90607,-13.26724 -7.76107,-3.01908 -16.9988,0.79197 -17.21087,7.10091 -0.0842,2.52461 -0.36975,7.13517 -0.63307,10.24578 -0.33839,3.99724 1.19851,6.79213 5.24149,9.53065 6.8953,4.67111 7.31711,4.69063 13.66516,0.6328 z m 1.7055,-48.0344 c 4.55023,-4.99826 5.22344,-17.47318 1.22585,-22.71945 -4.05679,-5.32454 -14.36202,-6.54589 -19.06624,-2.25972 -3.9878,3.63364 -3.12413,20.93134 1.23264,24.68669 4.43015,3.81876 13.25599,3.9742 16.60775,0.29248 z m -0.15558,-48.0562 c 3.86391,-3.52068 4.51722,-6.01551 3.47738,-13.28281 -1.39763,-9.77123 -6.79043,-14.81874 -14.35765,-13.43872 -6.83926,1.24766 -10.21356,6.73875 -10.0627,16.3763 0.10146,6.58468 1.32721,9.30642 5.24869,11.66947 6.82594,4.11288 10.02217,3.84331 15.69428,-1.32424 z m 1.18008,-48.12584 c 3.50979,-6.01062 2.52975,-18.58465 -1.76753,-22.67702 -12.13795,-11.55992 -26.28128,4.78344 -18.73966,21.65468 1.86563,4.17271 3.81671,5.13444 10.25659,5.05533 5.53001,-0.0679 8.65261,-1.29637 10.2506,-4.03299 z"/></g><g id="layer4" transform="translate(-21.752323,-176.19238)"><text id="text3842" x="189.534" y="498.13" fill="#d6eaea" fill-opacity="1" stroke="none" stroke-width="1.042" font-family="Comfortaa" font-size="12.505" font-stretch="normal" font-style="normal" font-variant="normal" font-weight="normal" letter-spacing="0" transform="matrix(0.913126,-0.00954909,0.00796263,1.0950558,0,0)" word-spacing="0" xml:space="preserve" style="line-height:0%;-inkscape-font-specification:Comfortaa"><tspan id="tspan3844" x="189.534" y="498.13" fill="#d6eaea" fill-opacity="1" stroke-width="1.042" font-family="Lobster" font-size="111.157" font-stretch="normal" font-style="normal" font-variant="normal" font-weight="bold" style="line-height:4.25;-inkscape-font-specification:'Lobster Bold'">EventoL</tspan></text></g></svg>