<?xml version="1.0" encoding="UTF-8" standalone="no"?>
<svg
   xmlns:dc="http://purl.org/dc/elements/1.1/"
   xmlns:cc="http://creativecommons.org/ns#"
   xmlns:rdf="http://www.w3.org/1999/02/22-rdf-syntax-ns#"
   xmlns:svg="http://www.w3.org/2000/svg"
   xmlns="http://www.w3.org/2000/svg"
   xmlns:sodipodi="http://sodipodi.sourceforge.net/DTD/sodipodi-0.dtd"
   xmlns:inkscape="http://www.inkscape.org/namespaces/inkscape"
   width="21cm"
   height="29.700001cm"
   viewBox="0 0 744.09449 1052.3622"
   id="svg2"
   version="1.1"
   inkscape:version="0.91 r13725"
   sodipodi:docname="ticket_template_p.svg">
  <sodipodi:namedview
     pagecolor="#ffffff"
     bordercolor="#666666"
     borderopacity="1"
     objecttolerance="10"
     gridtolerance="10"
     guidetolerance="10"
     inkscape:pageopacity="0"
     inkscape:pageshadow="2"
     inkscape:window-width="1920"
     inkscape:window-height="1027"
     id="namedview58"
     showgrid="false"
     inkscape:zoom="1.2685914"
     inkscape:cx="319.88379"
     inkscape:cy="921.54433"
     inkscape:window-x="0"
     inkscape:window-y="24"
     inkscape:window-maximized="1"
     inkscape:current-layer="svg2"
     showguides="false" />
  <defs
     id="defs4" />
  <metadata
     id="metadata7">
    <rdf:RDF>
      <cc:Work
         rdf:about="">
        <dc:format>image/svg+xml</dc:format>
        <dc:type
           rdf:resource="http://purl.org/dc/dcmitype/StillImage" />
        <dc:title />
      </cc:Work>
    </rdf:RDF>
  </metadata>
  <g
     transform="matrix(1.1278649,0,0,1.1278649,-48.006966,-48.990328)"
     id="layer1" />
  <rect
     ry="11.60775"
     rx="16.806192"
     y="54.397301"
     x="54.420746"
     height="217.19432"
     width="635.19427"
     id="rect4150"
     style="opacity:1;fill:#ffffff;fill-opacity:1;fill-rule:nonzero;stroke:#214760;stroke-width:2.80567193;stroke-linecap:round;stroke-linejoin:round;stroke-miterlimit:4;stroke-dasharray:none;stroke-opacity:1" />
  <text
     id="text4152"
     y="89.795433"
     x="60.602959"
     style="font-style:normal;font-weight:normal;font-size:45.11459732px;line-height:125%;font-family:Sans;letter-spacing:0px;word-spacing:0px;fill:#000000;fill-opacity:1;stroke:none;stroke-width:1px;stroke-linecap:butt;stroke-linejoin:miter;stroke-opacity:1"
     xml:space="preserve"
     sodipodi:linespacing="125%"><tspan
       template-id="event_name"
       style="font-size:27.5px"
       y="89.795433"
       x="60.602959"
       id="tspan4154">Nombre del Evento</tspan></text>
  <path
     id="path5620"
     d="m 54.406375,162.99446 435.477475,0"
     style="fill:#214760;fill-opacity:1;fill-rule:evenodd;stroke:#214760;stroke-width:0.80847007;stroke-linecap:butt;stroke-linejoin:miter;stroke-miterlimit:4;stroke-dasharray:none;stroke-opacity:1" />
  <path
     id="path5634"
     d="m 489.84941,272.99446 0,-220"
     style="fill:#214860;fill-opacity:0.33333333;fill-rule:evenodd;stroke:#214760;stroke-width:0.75046653;stroke-linecap:butt;stroke-linejoin:miter;stroke-miterlimit:4;stroke-dasharray:none;stroke-opacity:1" />
  <g
     id="g4268"
     transform="translate(-8,4)">
    <text
       sodipodi:linespacing="125%"
       xml:space="preserve"
       style="font-style:normal;font-weight:normal;font-size:25.37696075px;line-height:125%;font-family:Sans;letter-spacing:0px;word-spacing:0px;fill:#000000;fill-opacity:1;stroke:none;stroke-width:1px;stroke-linecap:butt;stroke-linejoin:miter;stroke-opacity:1"
       x="89.351845"
       y="149.81636"
       id="text4164"><tspan
         style="font-size:15px"
         x="89.351845"
         y="149.81636"
         id="tspan4168"
         template-id="event_date">Sabado 31 de Abril de 2016</tspan></text>
    <g
       id="text5530"
       style="font-style:normal;font-weight:normal;font-size:33.83594513px;line-height:125%;font-family:Sans;letter-spacing:0px;word-spacing:0px;fill:#000000;fill-opacity:1;stroke:none;stroke-width:1px;stroke-linecap:butt;stroke-linejoin:miter;stroke-opacity:1">
      <path
         inkscape:connector-curvature="0"
         id="path4246"
         style="font-size:15px"
         d="m 72.618723,150.6529 2.410714,0 0,-2.41072 -2.410714,0 0,2.41072 z m 2.946429,0 2.678571,0 0,-2.41072 -2.678571,0 0,2.41072 z m -2.946429,-2.94643 2.410714,0 0,-2.67857 -2.410714,0 0,2.67857 z m 2.946429,0 2.678571,0 0,-2.67857 -2.678571,0 0,2.67857 z m -2.946429,-3.21429 2.410714,0 0,-2.41071 -2.410714,0 0,2.41071 z m 6.160714,6.16072 2.678572,0 0,-2.41072 -2.678572,0 0,2.41072 z m -3.214285,-6.16072 2.678571,0 0,-2.41071 -2.678571,0 0,2.41071 z m 6.428571,6.16072 2.410714,0 0,-2.41072 -2.410714,0 0,2.41072 z m -3.214286,-2.94643 2.678572,0 0,-2.67857 -2.678572,0 0,2.67857 z m -2.946428,-7.23215 0,-2.41071 q 0,-0.10882 -0.08371,-0.18415 -0.07533,-0.0837 -0.184152,-0.0837 l -0.535715,0 q -0.108816,0 -0.192522,0.0837 -0.07534,0.0753 -0.07534,0.18415 l 0,2.41071 q 0,0.10882 0.07534,0.19253 0.08371,0.0753 0.192522,0.0753 l 0.535715,0 q 0.108817,0 0.184152,-0.0753 0.08371,-0.0837 0.08371,-0.19253 z m 6.160714,7.23215 2.410714,0 0,-2.67857 -2.410714,0 0,2.67857 z m -3.214286,-3.21429 2.678572,0 0,-2.41071 -2.678572,0 0,2.41071 z m 3.214286,0 2.410714,0 0,-2.41071 -2.410714,0 0,2.41071 z m 0.267857,-4.01786 0,-2.41071 q 0,-0.10882 -0.0837,-0.18415 -0.07533,-0.0837 -0.184152,-0.0837 l -0.535714,0 q -0.108817,0 -0.192522,0.0837 -0.07533,0.0753 -0.07533,0.18415 l 0,2.41071 q 0,0.10882 0.07533,0.19253 0.08371,0.0753 0.192522,0.0753 l 0.535714,0 q 0.108817,0 0.184152,-0.0753 0.0837,-0.0837 0.0837,-0.19253 z m 3.214286,-0.53571 0,10.71429 q 0,0.43526 -0.31808,0.75334 -0.318081,0.31808 -0.753349,0.31808 l -11.785714,0 q -0.435268,0 -0.753348,-0.31808 -0.31808,-0.31808 -0.31808,-0.75334 l 0,-10.71429 q 0,-0.43527 0.31808,-0.75335 0.31808,-0.31808 0.753348,-0.31808 l 1.071429,0 0,-0.80357 q 0,-0.55246 0.393415,-0.94587 0.393415,-0.39342 0.94587,-0.39342 l 0.535715,0 q 0.552455,0 0.94587,0.39342 0.393415,0.39341 0.393415,0.94587 l 0,0.80357 3.214286,0 0,-0.80357 q 0,-0.55246 0.393415,-0.94587 0.393416,-0.39342 0.945871,-0.39342 l 0.535714,0 q 0.552456,0 0.945871,0.39342 0.393415,0.39341 0.393415,0.94587 l 0,0.80357 1.071428,0 q 0.435268,0 0.753349,0.31808 0.31808,0.31808 0.31808,0.75335 z" />
    </g>
  </g>
  <g
     id="g4258"
     transform="translate(-8,0)">
    <g
       id="g4251">
      <text
         sodipodi:linespacing="125%"
         id="text4156"
         y="114.89537"
         x="89.351845"
         style="font-style:normal;font-weight:normal;font-size:25.37696075px;line-height:125%;font-family:Sans;letter-spacing:0px;word-spacing:0px;fill:#000000;fill-opacity:1;stroke:none;stroke-width:1px;stroke-linecap:butt;stroke-linejoin:miter;stroke-opacity:1"
         xml:space="preserve"><tspan
           id="tspan4160"
           y="114.89537"
           x="89.351845"
           style="font-size:15px"
           template-id="event_place_name">La puerca esta en el chiquero</tspan><tspan
           id="tspan5636"
           y="133.64537"
           x="89.351845"
           style="font-size:10px" /></text>
      <g
         style="font-style:normal;font-weight:normal;font-size:33.83594513px;line-height:125%;font-family:Sans;letter-spacing:0px;word-spacing:0px;fill:#000000;fill-opacity:1;stroke:none;stroke-width:1px;stroke-linecap:butt;stroke-linejoin:miter;stroke-opacity:1"
         id="text5526">
        <path
           inkscape:connector-curvature="0"
           d="m 80.026649,108.67554 q 0.627791,-0.62779 0.627791,-1.51506 0,-0.88728 -0.627791,-1.51507 -0.62779,-0.62779 -1.515066,-0.62779 -0.887277,0 -1.515067,0.62779 -0.627791,0.62779 -0.627791,1.51507 0,0.88727 0.627791,1.51506 0.62779,0.62779 1.515067,0.62779 0.887276,0 1.515066,-0.62779 z m 2.770648,-1.51506 q 0,0.91239 -0.276228,1.49832 l -3.046875,6.4788 q -0.133928,0.27622 -0.401786,0.43527 -0.259486,0.15904 -0.560825,0.15904 -0.30134,0 -0.569197,-0.15904 -0.259487,-0.15905 -0.385045,-0.43527 l -3.055245,-6.4788 q -0.276228,-0.58593 -0.276228,-1.49832 0,-1.77456 1.255581,-3.03014 1.25558,-1.25558 3.030134,-1.25558 1.774553,0 3.030133,1.25558 1.255581,1.25558 1.255581,3.03014 z"
           style="font-size:15px"
           id="path4249" />
      </g>
    </g>
    <text
       sodipodi:linespacing="125%"
       xml:space="preserve"
       style="font-style:normal;font-weight:normal;font-size:15px;line-height:125%;font-family:Sans;letter-spacing:0px;word-spacing:0px;fill:#000000;fill-opacity:1;stroke:none;stroke-width:1px;stroke-linecap:butt;stroke-linejoin:miter;stroke-opacity:1"
       x="89.53495"
       y="128.69115"
       id="text5658"><tspan
         id="tspan5660"
         x="89.53495"
         y="128.69115"
         style="font-size:10px"
         template-id="event_place_address">Calle falsa 1234, Springfield, , USA</tspan></text>
  </g>
  <text
     id="text5709"
     y="258.32123"
     x="528.97095"
     style="font-style:normal;font-weight:normal;font-size:15px;line-height:125%;font-family:Sans;letter-spacing:0px;word-spacing:0px;fill:#000000;fill-opacity:1;stroke:none;stroke-width:1px;stroke-linecap:butt;stroke-linejoin:miter;stroke-opacity:1"
     xml:space="preserve"><tspan
       template-id="ticket_type"
       style="font-size:15px"
       id="tspan5713"
       y="258.32123"
       x="528.97095">Entrada General</tspan></text>
  <rect
     template-id="qr_code"
     y="68.339935"
     x="515.63873"
     height="149.6674"
     width="149.6674"
     id="rect5717"
     style="opacity:1;fill:none;fill-opacity:1;fill-rule:nonzero;stroke:#ffffff;stroke-width:0.33259428;stroke-linecap:round;stroke-linejoin:miter;stroke-miterlimit:4;stroke-dasharray:none;stroke-opacity:1" />
  <text
     id="text5721"
     y="232.18932"
     x="558.77075"
     style="font-style:normal;font-weight:normal;font-size:15px;line-height:125%;font-family:Sans;letter-spacing:0px;word-spacing:0px;fill:#000000;fill-opacity:1;stroke:none;stroke-width:1px;stroke-linecap:butt;stroke-linejoin:miter;stroke-opacity:1"
     xml:space="preserve"><tspan
       template-id="eventUser_PK"
       style="font-size:10px"
       y="232.18932"
       x="526.77075"
       id="tspan5723">aaaaaaaaaaaaaaaaaaaaa</tspan></text>
  <text
     id="text6715"
     y="251.36223"
     x="182"
     style="font-style:normal;font-weight:normal;font-size:30px;line-height:125%;font-family:Sans;letter-spacing:0px;word-spacing:0px;fill:#000000;fill-opacity:1;stroke:none;stroke-width:1px;stroke-linecap:butt;stroke-linejoin:miter;stroke-opacity:1"
     xml:space="preserve"><tspan
       y="251.36223"
       x="182"
       id="tspan6717" /></text>
  <g
     id="g4305"
     transform="translate(-8,8)">
    <text
       sodipodi:linespacing="125%"
       xml:space="preserve"
       style="font-style:normal;font-weight:normal;font-size:30px;line-height:125%;font-family:Sans;letter-spacing:0px;word-spacing:0px;fill:#000000;fill-opacity:1;stroke:none;stroke-width:1px;stroke-linecap:butt;stroke-linejoin:miter;stroke-opacity:1"
       x="90.626221"
       y="229.39661"
       id="text5729"><tspan
         id="tspan5731"
         x="90.626221"
         y="229.39661"
         style="font-size:12.5px"
         template-id="eventUser_email">cosme@fulanito.com.ar</tspan></text>
    <g
       id="text6719"
       style="font-style:normal;font-weight:normal;font-size:30px;line-height:125%;font-family:Sans;letter-spacing:0px;word-spacing:0px;fill:#000000;fill-opacity:1;stroke:none;stroke-width:1px;stroke-linecap:butt;stroke-linejoin:miter;stroke-opacity:1">
      <path
         inkscape:connector-curvature="0"
         id="path4240"
         style="font-style:normal;font-variant:normal;font-weight:normal;font-stretch:normal;font-size:15px;font-family:FontAwesome;-inkscape-font-specification:FontAwesome"
         d="m 85.781599,230.50169 0,-6.42857 q -0.267857,0.30134 -0.577567,0.55245 -2.243304,1.72433 -3.565848,2.82924 -0.426898,0.35994 -0.694755,0.56083 -0.267857,0.20089 -0.728236,0.41016 -0.452009,0.20089 -0.853795,0.20089 l -0.0084,0 -0.0084,0 q -0.401786,0 -0.862165,-0.20089 -0.452009,-0.20927 -0.719866,-0.41016 -0.267858,-0.20089 -0.694755,-0.56083 -1.322545,-1.10491 -3.565848,-2.82924 -0.30971,-0.25111 -0.577567,-0.55245 l 0,6.42857 q 0,0.10882 0.07533,0.19252 0.0837,0.0753 0.192522,0.0753 l 12.321429,0 q 0.108817,0 0.184151,-0.0753 0.08371,-0.0837 0.08371,-0.19252 z m 0,-8.79743 q 0,-0.0167 0,-0.0921 0,-0.0753 0,-0.10882 0,-0.0418 -0.0084,-0.10881 0,-0.0753 -0.02511,-0.10882 -0.01674,-0.0335 -0.04185,-0.0753 -0.02511,-0.0418 -0.07534,-0.0586 -0.05022,-0.0251 -0.117187,-0.0251 l -12.321429,0 q -0.108817,0 -0.192522,0.0837 -0.07533,0.0753 -0.07533,0.18416 0,1.40625 1.230469,2.37723 1.615513,1.27232 3.356584,2.65346 0.05022,0.0419 0.292969,0.25111 0.242746,0.2009 0.385045,0.30971 0.142299,0.10882 0.368303,0.26786 0.234375,0.15067 0.426898,0.22601 0.192522,0.0753 0.359933,0.0753 l 0.0084,0 0.0084,0 q 0.167411,0 0.359933,-0.0753 0.192522,-0.0753 0.418527,-0.22601 0.234375,-0.15904 0.376674,-0.26786 0.142299,-0.10881 0.385044,-0.30971 0.242746,-0.20926 0.292969,-0.25111 1.741072,-1.38114 3.356585,-2.65346 0.452009,-0.35993 0.837054,-0.96261 0.393415,-0.61105 0.393415,-1.10491 z m 1.071428,-0.30971 0,9.10714 q 0,0.55245 -0.393415,0.94587 -0.393415,0.39342 -0.94587,0.39342 l -12.321429,0 q -0.552455,0 -0.94587,-0.39342 -0.393416,-0.39342 -0.393416,-0.94587 l 0,-9.10714 q 0,-0.55246 0.393416,-0.94587 0.393415,-0.39342 0.94587,-0.39342 l 12.321429,0 q 0.552455,0 0.94587,0.39342 0.393415,0.39341 0.393415,0.94587 z" />
    </g>
  </g>
  <g
     id="g4296"
     transform="translate(-8,2)">
    <text
       sodipodi:linespacing="125%"
       xml:space="preserve"
       style="font-style:normal;font-weight:normal;font-size:30px;line-height:125%;font-family:Sans;letter-spacing:0px;word-spacing:0px;fill:#000000;fill-opacity:1;stroke:none;stroke-width:1px;stroke-linecap:butt;stroke-linejoin:miter;stroke-opacity:1"
       x="89.84375"
       y="209.09599"
       id="text5725-2"><tspan
         id="tspan5727-9"
         x="89.84375"
         y="209.09599"
         style="font-size:15px"
         template-id="eventUser_name_l2">MMMMMMMMMMMMMMMMMMMMMMMMMMMMMM</tspan></text>
    <g
       id="g4290">
      <text
         id="text5725"
         y="191.47261"
         x="89.84375"
         style="font-style:normal;font-weight:normal;font-size:30px;line-height:125%;font-family:Sans;letter-spacing:0px;word-spacing:0px;fill:#000000;fill-opacity:1;stroke:none;stroke-width:1px;stroke-linecap:butt;stroke-linejoin:miter;stroke-opacity:1"
         xml:space="preserve"
         sodipodi:linespacing="125%"><tspan
           template-id="eventUser_name_l1"
           style="font-size:15px"
           y="191.47261"
           x="89.84375"
           id="tspan5727">MMMMMMMMMMMMMMMMMMMMMMMMMMMMMM</tspan></text>
      <g
         style="font-style:normal;font-weight:normal;font-size:30px;line-height:125%;font-family:Sans;letter-spacing:0px;word-spacing:0px;fill:#000000;fill-opacity:1;stroke:none;stroke-width:1px;stroke-linecap:butt;stroke-linejoin:miter;stroke-opacity:1"
         id="text6733">
        <path
           inkscape:connector-curvature="0"
           d="m 85.245881,190.26569 q 0,1.00446 -0.611049,1.58203 -0.611049,0.58594 -1.623884,0.58594 l -7.315848,0 q -1.012835,0 -1.623884,-0.58594 -0.611049,-0.57757 -0.611049,-1.58203 0,-0.44364 0.02511,-0.86217 0.03348,-0.42689 0.117187,-0.91239 0.09208,-0.49386 0.226005,-0.91238 0.133928,-0.41853 0.359933,-0.81195 0.226004,-0.40178 0.518973,-0.67801 0.292969,-0.2846 0.711495,-0.45201 0.426898,-0.16741 0.9375,-0.16741 0.07534,0 0.351563,0.18415 0.276227,0.17578 0.619419,0.40179 0.351563,0.21763 0.904018,0.40178 0.560826,0.17579 1.121652,0.17579 0.560826,0 1.113281,-0.17579 0.560826,-0.18415 0.904018,-0.40178 0.351563,-0.22601 0.62779,-0.40179 0.276228,-0.18415 0.351563,-0.18415 0.510603,0 0.929129,0.16741 0.426898,0.16741 0.719866,0.45201 0.292969,0.27623 0.518974,0.67801 0.226004,0.39342 0.359933,0.81195 0.133928,0.41852 0.217634,0.91238 0.09207,0.4855 0.117187,0.91239 0.03348,0.41853 0.03348,0.86217 z m -3.624442,-9.74331 q 0.945871,0.9375 0.945871,2.26842 0,1.33092 -0.945871,2.27679 -0.9375,0.9375 -2.268415,0.9375 -1.330915,0 -2.276786,-0.9375 -0.9375,-0.94587 -0.9375,-2.27679 0,-1.33092 0.9375,-2.26842 0.945871,-0.94587 2.276786,-0.94587 1.330915,0 2.268415,0.94587 z"
           style="font-style:normal;font-variant:normal;font-weight:normal;font-stretch:normal;font-size:15px;font-family:FontAwesome;-inkscape-font-specification:FontAwesome"
           id="path4243" />
      </g>
    </g>
  </g>
</svg>
