<svg xmlns="http://www.w3.org/2000/svg" xmlns:svg="http://www.w3.org/2000/svg" id="svg2" width="21cm" height="1122.52" version="1.1" viewBox="0 0 744.094 1052.362"><metadata id="metadata7"/><rect id="rect4150" width="635.194" height="217.194" x="54.421" y="54.397" fill="#fff" fill-opacity="1" fill-rule="nonzero" stroke="#214760" stroke-dasharray="none" stroke-linecap="round" stroke-linejoin="round" stroke-miterlimit="4" stroke-opacity="1" stroke-width="2.806" opacity="1" rx="16.806" ry="11.608"/><text id="text4152" x="60.603" y="89.795" fill="#000" fill-opacity="1" stroke="none" stroke-linecap="butt" stroke-linejoin="miter" stroke-opacity="1" stroke-width="1" font-family="Sans" font-size="45.115" font-style="normal" font-weight="normal" letter-spacing="0" word-spacing="0" xml:space="preserve" style="line-height:125%"><tspan id="tspan4154" x="60.603" y="89.795" font-size="27.5" template-id="event_name">Nombre del Evento</tspan></text><path id="path5620" fill="#214760" fill-opacity="1" fill-rule="evenodd" stroke="#214760" stroke-dasharray="none" stroke-linecap="butt" stroke-linejoin="miter" stroke-miterlimit="4" stroke-opacity="1" stroke-width=".808" d="m 54.406375,162.99446 435.477475,0"/><path id="path5634" fill="#214860" fill-opacity=".333" fill-rule="evenodd" stroke="#214760" stroke-dasharray="none" stroke-linecap="butt" stroke-linejoin="miter" stroke-miterlimit="4" stroke-opacity="1" stroke-width=".75" d="m 489.84941,272.99446 0,-220"/><g id="g4268" transform="translate(-8,4)"><text id="text4164" x="89.352" y="149.816" fill="#000" fill-opacity="1" stroke="none" stroke-linecap="butt" stroke-linejoin="miter" stroke-opacity="1" stroke-width="1" font-family="Sans" font-size="25.377" font-style="normal" font-weight="normal" letter-spacing="0" word-spacing="0" xml:space="preserve" style="line-height:125%"><tspan id="tspan4168" x="89.352" y="149.816" font-size="15" template-id="event_date">Sabado 31 de Abril de 2016</tspan></text><g id="text5530" fill="#000" fill-opacity="1" stroke="none" stroke-linecap="butt" stroke-linejoin="miter" stroke-opacity="1" stroke-width="1" font-family="Sans" font-size="33.836" font-style="normal" font-weight="normal" letter-spacing="0" word-spacing="0" style="line-height:125%"><path id="path4246" d="m 72.618723,150.6529 2.410714,0 0,-2.41072 -2.410714,0 0,2.41072 z m 2.946429,0 2.678571,0 0,-2.41072 -2.678571,0 0,2.41072 z m -2.946429,-2.94643 2.410714,0 0,-2.67857 -2.410714,0 0,2.67857 z m 2.946429,0 2.678571,0 0,-2.67857 -2.678571,0 0,2.67857 z m -2.946429,-3.21429 2.410714,0 0,-2.41071 -2.410714,0 0,2.41071 z m 6.160714,6.16072 2.678572,0 0,-2.41072 -2.678572,0 0,2.41072 z m -3.214285,-6.16072 2.678571,0 0,-2.41071 -2.678571,0 0,2.41071 z m 6.428571,6.16072 2.410714,0 0,-2.41072 -2.410714,0 0,2.41072 z m -3.214286,-2.94643 2.678572,0 0,-2.67857 -2.678572,0 0,2.67857 z m -2.946428,-7.23215 0,-2.41071 q 0,-0.10882 -0.08371,-0.18415 -0.07533,-0.0837 -0.184152,-0.0837 l -0.535715,0 q -0.108816,0 -0.192522,0.0837 -0.07534,0.0753 -0.07534,0.18415 l 0,2.41071 q 0,0.10882 0.07534,0.19253 0.08371,0.0753 0.192522,0.0753 l 0.535715,0 q 0.108817,0 0.184152,-0.0753 0.08371,-0.0837 0.08371,-0.19253 z m 6.160714,7.23215 2.410714,0 0,-2.67857 -2.410714,0 0,2.67857 z m -3.214286,-3.21429 2.678572,0 0,-2.41071 -2.678572,0 0,2.41071 z m 3.214286,0 2.410714,0 0,-2.41071 -2.410714,0 0,2.41071 z m 0.267857,-4.01786 0,-2.41071 q 0,-0.10882 -0.0837,-0.18415 -0.07533,-0.0837 -0.184152,-0.0837 l -0.535714,0 q -0.108817,0 -0.192522,0.0837 -0.07533,0.0753 -0.07533,0.18415 l 0,2.41071 q 0,0.10882 0.07533,0.19253 0.08371,0.0753 0.192522,0.0753 l 0.535714,0 q 0.108817,0 0.184152,-0.0753 0.0837,-0.0837 0.0837,-0.19253 z m 3.214286,-0.53571 0,10.71429 q 0,0.43526 -0.31808,0.75334 -0.318081,0.31808 -0.753349,0.31808 l -11.785714,0 q -0.435268,0 -0.753348,-0.31808 -0.31808,-0.31808 -0.31808,-0.75334 l 0,-10.71429 q 0,-0.43527 0.31808,-0.75335 0.31808,-0.31808 0.753348,-0.31808 l 1.071429,0 0,-0.80357 q 0,-0.55246 0.393415,-0.94587 0.393415,-0.39342 0.94587,-0.39342 l 0.535715,0 q 0.552455,0 0.94587,0.39342 0.393415,0.39341 0.393415,0.94587 l 0,0.80357 3.214286,0 0,-0.80357 q 0,-0.55246 0.393415,-0.94587 0.393416,-0.39342 0.945871,-0.39342 l 0.535714,0 q 0.552456,0 0.945871,0.39342 0.393415,0.39341 0.393415,0.94587 l 0,0.80357 1.071428,0 q 0.435268,0 0.753349,0.31808 0.31808,0.31808 0.31808,0.75335 z" font-size="15"/></g></g><g id="g4258" transform="translate(-8,0)"><g id="g4251"><text id="text4156" x="89.352" y="114.895" fill="#000" fill-opacity="1" stroke="none" stroke-linecap="butt" stroke-linejoin="miter" stroke-opacity="1" stroke-width="1" font-family="Sans" font-size="25.377" font-style="normal" font-weight="normal" letter-spacing="0" word-spacing="0" xml:space="preserve" style="line-height:125%"><tspan id="tspan4160" x="89.352" y="114.895" font-size="15" template-id="event_place_name">La puerca esta en el chiquero</tspan></text><g id="text5526" fill="#000" fill-opacity="1" stroke="none" stroke-linecap="butt" stroke-linejoin="miter" stroke-opacity="1" stroke-width="1" font-family="Sans" font-size="33.836" font-style="normal" font-weight="normal" letter-spacing="0" word-spacing="0" style="line-height:125%"><path id="path4249" d="m 80.026649,108.67554 q 0.627791,-0.62779 0.627791,-1.51506 0,-0.88728 -0.627791,-1.51507 -0.62779,-0.62779 -1.515066,-0.62779 -0.887277,0 -1.515067,0.62779 -0.627791,0.62779 -0.627791,1.51507 0,0.88727 0.627791,1.51506 0.62779,0.62779 1.515067,0.62779 0.887276,0 1.515066,-0.62779 z m 2.770648,-1.51506 q 0,0.91239 -0.276228,1.49832 l -3.046875,6.4788 q -0.133928,0.27622 -0.401786,0.43527 -0.259486,0.15904 -0.560825,0.15904 -0.30134,0 -0.569197,-0.15904 -0.259487,-0.15905 -0.385045,-0.43527 l -3.055245,-6.4788 q -0.276228,-0.58593 -0.276228,-1.49832 0,-1.77456 1.255581,-3.03014 1.25558,-1.25558 3.030134,-1.25558 1.774553,0 3.030133,1.25558 1.255581,1.25558 1.255581,3.03014 z" font-size="15"/></g></g><text id="text5658" x="89.535" y="128.691" fill="#000" fill-opacity="1" stroke="none" stroke-linecap="butt" stroke-linejoin="miter" stroke-opacity="1" stroke-width="1" font-family="Sans" font-size="15" font-style="normal" font-weight="normal" letter-spacing="0" word-spacing="0" xml:space="preserve" style="line-height:125%"><tspan id="tspan5660" x="89.535" y="128.691" font-size="10" template-id="event_place_address">Calle falsa 1234, Springfield, , USA</tspan></text></g><text id="text5709" x="528.971" y="258.321" fill="#000" fill-opacity="1" stroke="none" stroke-linecap="butt" stroke-linejoin="miter" stroke-opacity="1" stroke-width="1" font-family="Sans" font-size="15" font-style="normal" font-weight="normal" letter-spacing="0" word-spacing="0" xml:space="preserve" style="line-height:125%"><tspan id="tspan5713" x="528.971" y="258.321" font-size="15" template-id="ticket_type">Entrada General</tspan></text><rect id="rect5717" width="149.667" height="149.667" x="515.639" y="68.34" fill="none" fill-opacity="1" fill-rule="nonzero" stroke="#fff" stroke-dasharray="none" stroke-linecap="round" stroke-linejoin="miter" stroke-miterlimit="4" stroke-opacity="1" stroke-width=".333" opacity="1" template-id="qr_code"/><text id="text5721" x="558.771" y="232.189" fill="#000" fill-opacity="1" stroke="none" stroke-linecap="butt" stroke-linejoin="miter" stroke-opacity="1" stroke-width="1" font-family="Sans" font-size="15" font-style="normal" font-weight="normal" letter-spacing="0" word-spacing="0" xml:space="preserve" style="line-height:125%"><tspan id="tspan5723" x="526.771" y="232.189" font-size="10" template-id="eventUser_PK">aaaaaaaaaaaaaaaaaaaaa</tspan></text><g id="g4305" transform="translate(-8,8)"><text id="text5729" x="90.626" y="229.397" fill="#000" fill-opacity="1" stroke="none" stroke-linecap="butt" stroke-linejoin="miter" stroke-opacity="1" stroke-width="1" font-family="Sans" font-size="30" font-style="normal" font-weight="normal" letter-spacing="0" word-spacing="0" xml:space="preserve" style="line-height:125%"><tspan id="tspan5731" x="90.626" y="229.397" font-size="12.5" template-id="eventUser_email">cosme@fulanito.com.ar</tspan></text><g id="text6719" fill="#000" fill-opacity="1" stroke="none" stroke-linecap="butt" stroke-linejoin="miter" stroke-opacity="1" stroke-width="1" font-family="Sans" font-size="30" font-style="normal" font-weight="normal" letter-spacing="0" word-spacing="0" style="line-height:125%"><path style="-inkscape-font-specification:FontAwesome" id="path4240" d="m 85.781599,230.50169 0,-6.42857 q -0.267857,0.30134 -0.577567,0.55245 -2.243304,1.72433 -3.565848,2.82924 -0.426898,0.35994 -0.694755,0.56083 -0.267857,0.20089 -0.728236,0.41016 -0.452009,0.20089 -0.853795,0.20089 l -0.0084,0 -0.0084,0 q -0.401786,0 -0.862165,-0.20089 -0.452009,-0.20927 -0.719866,-0.41016 -0.267858,-0.20089 -0.694755,-0.56083 -1.322545,-1.10491 -3.565848,-2.82924 -0.30971,-0.25111 -0.577567,-0.55245 l 0,6.42857 q 0,0.10882 0.07533,0.19252 0.0837,0.0753 0.192522,0.0753 l 12.321429,0 q 0.108817,0 0.184151,-0.0753 0.08371,-0.0837 0.08371,-0.19252 z m 0,-8.79743 q 0,-0.0167 0,-0.0921 0,-0.0753 0,-0.10882 0,-0.0418 -0.0084,-0.10881 0,-0.0753 -0.02511,-0.10882 -0.01674,-0.0335 -0.04185,-0.0753 -0.02511,-0.0418 -0.07534,-0.0586 -0.05022,-0.0251 -0.117187,-0.0251 l -12.321429,0 q -0.108817,0 -0.192522,0.0837 -0.07533,0.0753 -0.07533,0.18416 0,1.40625 1.230469,2.37723 1.615513,1.27232 3.356584,2.65346 0.05022,0.0419 0.292969,0.25111 0.242746,0.2009 0.385045,0.30971 0.142299,0.10882 0.368303,0.26786 0.234375,0.15067 0.426898,0.22601 0.192522,0.0753 0.359933,0.0753 l 0.0084,0 0.0084,0 q 0.167411,0 0.359933,-0.0753 0.192522,-0.0753 0.418527,-0.22601 0.234375,-0.15904 0.376674,-0.26786 0.142299,-0.10881 0.385044,-0.30971 0.242746,-0.20926 0.292969,-0.25111 1.741072,-1.38114 3.356585,-2.65346 0.452009,-0.35993 0.837054,-0.96261 0.393415,-0.61105 0.393415,-1.10491 z m 1.071428,-0.30971 0,9.10714 q 0,0.55245 -0.393415,0.94587 -0.393415,0.39342 -0.94587,0.39342 l -12.321429,0 q -0.552455,0 -0.94587,-0.39342 -0.393416,-0.39342 -0.393416,-0.94587 l 0,-9.10714 q 0,-0.55246 0.393416,-0.94587 0.393415,-0.39342 0.94587,-0.39342 l 12.321429,0 q 0.552455,0 0.94587,0.39342 0.393415,0.39341 0.393415,0.94587 z" font-family="FontAwesome" font-size="15" font-stretch="normal" font-style="normal" font-variant="normal" font-weight="normal"/></g></g><g id="g4296" transform="translate(-8,2)"><text id="text5725-2" x="89.844" y="209.096" fill="#000" fill-opacity="1" stroke="none" stroke-linecap="butt" stroke-linejoin="miter" stroke-opacity="1" stroke-width="1" font-family="Sans" font-size="30" font-style="normal" font-weight="normal" letter-spacing="0" word-spacing="0" xml:space="preserve" style="line-height:125%"><tspan id="tspan5727-9" x="89.844" y="209.096" font-size="15" template-id="eventUser_name_l2">MMMMMMMMMMMMMMMMMMMMMMMMMMMMMM</tspan></text><g id="g4290"><text id="text5725" x="89.844" y="191.473" fill="#000" fill-opacity="1" stroke="none" stroke-linecap="butt" stroke-linejoin="miter" stroke-opacity="1" stroke-width="1" font-family="Sans" font-size="30" font-style="normal" font-weight="normal" letter-spacing="0" word-spacing="0" xml:space="preserve" style="line-height:125%"><tspan id="tspan5727" x="89.844" y="191.473" font-size="15" template-id="eventUser_name_l1">MMMMMMMMMMMMMMMMMMMMMMMMMMMMMM</tspan></text><g id="text6733" fill="#000" fill-opacity="1" stroke="none" stroke-linecap="butt" stroke-linejoin="miter" stroke-opacity="1" stroke-width="1" font-family="Sans" font-size="30" font-style="normal" font-weight="normal" letter-spacing="0" word-spacing="0" style="line-height:125%"><path id="path4243" d="m 85.245881,190.26569 q 0,1.00446 -0.611049,1.58203 -0.611049,0.58594 -1.623884,0.58594 l -7.315848,0 q -1.012835,0 -1.623884,-0.58594 -0.611049,-0.57757 -0.611049,-1.58203 0,-0.44364 0.02511,-0.86217 0.03348,-0.42689 0.117187,-0.91239 0.09208,-0.49386 0.226005,-0.91238 0.133928,-0.41853 0.359933,-0.81195 0.226004,-0.40178 0.518973,-0.67801 0.292969,-0.2846 0.711495,-0.45201 0.426898,-0.16741 0.9375,-0.16741 0.07534,0 0.351563,0.18415 0.276227,0.17578 0.619419,0.40179 0.351563,0.21763 0.904018,0.40178 0.560826,0.17579 1.121652,0.17579 0.560826,0 1.113281,-0.17579 0.560826,-0.18415 0.904018,-0.40178 0.351563,-0.22601 0.62779,-0.40179 0.276228,-0.18415 0.351563,-0.18415 0.510603,0 0.929129,0.16741 0.426898,0.16741 0.719866,0.45201 0.292969,0.27623 0.518974,0.67801 0.226004,0.39342 0.359933,0.81195 0.133928,0.41852 0.217634,0.91238 0.09207,0.4855 0.117187,0.91239 0.03348,0.41853 0.03348,0.86217 z m -3.624442,-9.74331 q 0.945871,0.9375 0.945871,2.26842 0,1.33092 -0.945871,2.27679 -0.9375,0.9375 -2.268415,0.9375 -1.330915,0 -2.276786,-0.9375 -0.9375,-0.94587 -0.9375,-2.27679 0,-1.33092 0.9375,-2.26842 0.945871,-0.94587 2.276786,-0.94587 1.330915,0 2.268415,0.94587 z" font-family="FontAwesome" font-size="15" font-stretch="normal" font-style="normal" font-variant="normal" font-weight="normal" style="-inkscape-font-specification:FontAwesome"/></g></g></g></svg>